<svg width="24" height="24" viewBox="0 0 24 24" fill="none" xmlns="http://www.w3.org/2000/svg">
<path d="M9.73174 11.7838C12.7096 11.7838 15.1236 9.36975 15.1236 6.39189C15.1236 3.41403 12.7096 1 9.73174 1C6.75388 1 4.33984 3.41403 4.33984 6.39189C4.33984 9.36975 6.75388 11.7838 9.73174 11.7838Z" fill="#2A8FD2"/>
<path d="M17.677 11.2162C14.703 11.2162 12.2852 13.6341 12.2852 16.6081C12.2852 19.5822 14.703 22 17.677 22C20.6511 22 23.0689 19.5822 23.0689 16.6081C23.0689 13.6341 20.6511 11.2162 17.677 11.2162ZM19.9473 17.4595H18.5284V18.8784C18.5284 19.3438 18.1425 19.7298 17.677 19.7298C17.2116 19.7298 16.8257 19.3438 16.8257 18.8784V17.4595H15.4068C14.9414 17.4595 14.5554 17.0735 14.5554 16.6081C14.5554 16.1427 14.9414 15.7568 15.4068 15.7568H16.8257V14.3379C16.8257 13.8725 17.2116 13.4865 17.677 13.4865C18.1425 13.4865 18.5284 13.8725 18.5284 14.3379V15.7568H19.9473C20.4127 15.7568 20.7987 16.1427 20.7987 16.6081C20.7987 17.0735 20.4127 17.4595 19.9473 17.4595Z" fill="#BFFB4F"/>
<path d="M11.3198 13.4864H7.57389C4.47497 13.4864 1.7847 15.6886 1.17173 18.7308L0.9447 19.8432C0.899295 20.0929 0.956052 20.354 1.12632 20.547C1.29659 20.74 1.53497 20.8535 1.7847 20.8535H12.0123C11.1155 19.6616 10.582 18.1973 10.582 16.5967C10.582 15.4729 10.8544 14.4173 11.3198 13.4751V13.4864Z" fill="#2A8FD2"/>
</svg>
