<svg width="24" height="24" viewBox="0 0 24 24" fill="none" xmlns="http://www.w3.org/2000/svg">
<g clip-path="url(#clip0_5870_8370)">
<path d="M20.5358 12.8119H18.6797C18.8689 13.3299 18.9722 13.8888 18.9722 14.4715V21.4863C18.9722 21.7292 18.93 21.9624 18.853 22.1792H21.9215C23.0678 22.1792 24.0002 21.2467 24.0002 20.1005V16.2764C24.0003 14.3661 22.4461 12.8119 20.5358 12.8119Z" fill="#BFFB4F"/>
<path d="M5.02806 14.4715C5.02806 13.8889 5.13142 13.3299 5.3206 12.812H3.46454C1.55419 12.812 0 14.3661 0 16.2765V20.1006C0 21.2468 0.932486 22.1793 2.07872 22.1793H5.14726C5.07034 21.9624 5.02806 21.7293 5.02806 21.4864V14.4715Z" fill="#2A8FD2"/>
<path d="M14.1218 11.007H9.8786C7.96825 11.007 6.41406 12.5611 6.41406 14.4715V21.4864C6.41406 21.869 6.72428 22.1793 7.10697 22.1793H16.8935C17.2761 22.1793 17.5864 21.869 17.5864 21.4864V14.4715C17.5864 12.5611 16.0322 11.007 14.1218 11.007Z" fill="#2A8FD2"/>
<path d="M11.9986 1.82062C9.70113 1.82062 7.83203 3.68971 7.83203 5.9872C7.83203 7.54557 8.69214 8.90658 9.96236 9.62115C10.5648 9.96006 11.2594 10.1537 11.9986 10.1537C12.7377 10.1537 13.4323 9.96006 14.0348 9.62115C15.305 8.90658 16.1651 7.54552 16.1651 5.9872C16.1651 3.68976 14.296 1.82062 11.9986 1.82062Z" fill="#2A8FD2"/>
<path d="M4.68243 5.70416C2.96422 5.70416 1.56641 7.10198 1.56641 8.82018C1.56641 10.5384 2.96422 11.9362 4.68243 11.9362C5.11827 11.9362 5.5333 11.8459 5.91032 11.6836C6.56217 11.403 7.09964 10.9062 7.43221 10.284C7.66565 9.84722 7.79845 9.34898 7.79845 8.82018C7.79845 7.10202 6.40063 5.70416 4.68243 5.70416Z" fill="#2A8FD2"/>
<path d="M19.3152 5.70416C17.597 5.70416 16.1992 7.10198 16.1992 8.82018C16.1992 9.34903 16.332 9.84726 16.5655 10.284C16.898 10.9063 17.4355 11.403 18.0873 11.6836C18.4644 11.8459 18.8794 11.9362 19.3152 11.9362C21.0334 11.9362 22.4313 10.5384 22.4313 8.82018C22.4313 7.10198 21.0334 5.70416 19.3152 5.70416Z" fill="#BFFB4F"/>
</g>
<defs>
<clipPath id="clip0_5870_8370">
<rect width="24" height="24" fill="white"/>
</clipPath>
</defs>
</svg>
